<svg width="24" height="24" viewBox="0 0 24 24" fill="none" xmlns="http://www.w3.org/2000/svg">
<circle cx="12" cy="12" r="12" fill="#2621FF"/>
<mask id="path-2-inside-1_358_554" fill="white">
<path fill-rule="evenodd" clip-rule="evenodd" d="M11.2085 12.5986C10.407 13.551 9.01588 13.6991 8.1013 12.9294C7.18671 12.1597 7.09503 10.7636 7.89653 9.81128L8.81092 10.5808C8.56224 10.7565 8.39986 11.0463 8.39986 11.3739C8.39986 11.9099 8.83434 12.3443 9.3703 12.3443C9.75745 12.3443 10.0917 12.1176 10.2474 11.7897L11.2085 12.5986Z"/>
</mask>
<path fill-rule="evenodd" clip-rule="evenodd" d="M11.2085 12.5986C10.407 13.551 9.01588 13.6991 8.1013 12.9294C7.18671 12.1597 7.09503 10.7636 7.89653 9.81128L8.81092 10.5808C8.56224 10.7565 8.39986 11.0463 8.39986 11.3739C8.39986 11.9099 8.83434 12.3443 9.3703 12.3443C9.75745 12.3443 10.0917 12.1176 10.2474 11.7897L11.2085 12.5986Z" fill="white"/>
<path d="M8.1013 12.9294L8.7452 12.1642H8.7452L8.1013 12.9294ZM11.2085 12.5986L11.9736 13.2425L12.6175 12.4774L11.8524 11.8335L11.2085 12.5986ZM7.89653 9.81128L8.54043 9.04617L7.77532 8.40227L7.13142 9.16738L7.89653 9.81128ZM8.81092 10.5808L9.38799 11.3975L10.446 10.6499L9.45483 9.81572L8.81092 10.5808ZM10.2474 11.7897L10.8913 11.0246L9.89993 10.1903L9.34408 11.3607L10.2474 11.7897ZM7.45739 13.6945C8.82343 14.8441 10.8413 14.588 11.9736 13.2425L10.4434 11.9547C9.97274 12.514 9.20833 12.554 8.7452 12.1642L7.45739 13.6945ZM7.13142 9.16738C5.99912 10.5128 6.09136 12.5448 7.45739 13.6945L8.7452 12.1642C8.28206 11.7745 8.19095 11.0145 8.66163 10.4552L7.13142 9.16738ZM9.45483 9.81572L8.54043 9.04617L7.25262 10.5764L8.16702 11.3459L9.45483 9.81572ZM9.39986 11.3739C9.39986 11.3749 9.39971 11.3773 9.39892 11.3804C9.39817 11.3834 9.39708 11.3861 9.39586 11.3884C9.39364 11.3926 9.39101 11.3954 9.38799 11.3975L8.23386 9.76413C7.73133 10.1192 7.39986 10.7078 7.39986 11.3739H9.39986ZM9.3703 11.3443C9.37253 11.3443 9.37718 11.345 9.38211 11.3471C9.38637 11.3489 9.38925 11.3511 9.3912 11.353C9.39315 11.355 9.39533 11.3578 9.39713 11.3621C9.39921 11.367 9.39986 11.3717 9.39986 11.3739H7.39986C7.39986 12.4622 8.28206 13.3443 9.3703 13.3443V11.3443ZM9.34408 11.3607C9.34661 11.3554 9.3498 11.3521 9.35356 11.3497C9.35581 11.3482 9.35874 11.3468 9.36227 11.3457C9.36602 11.3446 9.36902 11.3443 9.3703 11.3443V13.3443C10.1579 13.3443 10.8356 12.8822 11.1507 12.2187L9.34408 11.3607ZM11.8524 11.8335L10.8913 11.0246L9.60348 12.5548L10.5646 13.3637L11.8524 11.8335Z" fill="white" mask="url(#path-2-inside-1_358_554)"/>
<mask id="path-4-inside-2_358_554" fill="white">
<path fill-rule="evenodd" clip-rule="evenodd" d="M12.8398 12.5986C13.6413 13.551 15.0325 13.6991 15.947 12.9294C16.8616 12.1597 16.9533 10.7636 16.1518 9.81128L15.2374 10.5809C15.486 10.7566 15.6484 11.0463 15.6484 11.3739C15.6484 11.9099 15.2139 12.3443 14.6779 12.3443C14.2908 12.3443 13.9566 12.1177 13.8009 11.7898L12.8398 12.5986Z"/>
</mask>
<path fill-rule="evenodd" clip-rule="evenodd" d="M12.8398 12.5986C13.6413 13.551 15.0325 13.6991 15.947 12.9294C16.8616 12.1597 16.9533 10.7636 16.1518 9.81128L15.2374 10.5809C15.486 10.7566 15.6484 11.0463 15.6484 11.3739C15.6484 11.9099 15.2139 12.3443 14.6779 12.3443C14.2908 12.3443 13.9566 12.1177 13.8009 11.7898L12.8398 12.5986Z" fill="white"/>
<path d="M15.947 12.9294L16.5909 13.6945L16.5909 13.6945L15.947 12.9294ZM12.8398 12.5986L12.0747 13.2425L11.4308 12.4774L12.1959 11.8335L12.8398 12.5986ZM16.1518 9.81128L15.5079 9.04617L16.273 8.40227L16.9169 9.16738L16.1518 9.81128ZM15.2374 10.5809L14.6602 11.3975L13.6023 10.6499L14.5935 9.81575L15.2374 10.5809ZM13.8009 11.7898L13.157 11.0247L14.1483 10.1904L14.7042 11.3607L13.8009 11.7898ZM16.5909 13.6945C15.2249 14.8441 13.207 14.588 12.0747 13.2425L13.6049 11.9547C14.0756 12.514 14.84 12.554 15.3031 12.1642L16.5909 13.6945ZM16.9169 9.16738C18.0492 10.5128 17.957 12.5448 16.5909 13.6945L15.3031 12.1642C15.7663 11.7745 15.8574 11.0145 15.3867 10.4552L16.9169 9.16738ZM14.5935 9.81575L15.5079 9.04617L16.7957 10.5764L15.8813 11.346L14.5935 9.81575ZM14.6484 11.3739C14.6484 11.3749 14.6485 11.3772 14.6493 11.3804C14.6501 11.3834 14.6512 11.3861 14.6524 11.3884C14.6546 11.3926 14.6572 11.3954 14.6602 11.3975L15.8145 9.76421C16.317 10.1193 16.6484 10.7079 16.6484 11.3739H14.6484ZM14.6779 11.3443C14.6757 11.3443 14.6711 11.345 14.6661 11.3471C14.6619 11.3489 14.659 11.3511 14.657 11.353C14.6551 11.355 14.6529 11.3578 14.6511 11.3621C14.649 11.367 14.6484 11.3717 14.6484 11.3739H16.6484C16.6484 12.4622 15.7662 13.3443 14.6779 13.3443V11.3443ZM14.7042 11.3607C14.7016 11.3554 14.6984 11.3521 14.6947 11.3497C14.6924 11.3482 14.6895 11.3468 14.686 11.3457C14.6822 11.3446 14.6792 11.3443 14.6779 11.3443V13.3443C13.8904 13.3443 13.2127 12.8823 12.8976 12.2188L14.7042 11.3607ZM12.1959 11.8335L13.157 11.0247L14.4448 12.5549L13.4837 13.3637L12.1959 11.8335Z" fill="white" mask="url(#path-4-inside-2_358_554)"/>
<mask id="path-6-outside-3_358_554" maskUnits="userSpaceOnUse" x="3.20508" y="3.04346" width="18" height="20" fill="black">
<rect fill="white" x="3.20508" y="3.04346" width="18" height="20"/>
<path fill-rule="evenodd" clip-rule="evenodd" d="M19.1189 4.05564C19.177 4.01992 19.2505 4.06764 19.2415 4.13521L19.0614 5.4858C18.986 6.05144 18.8542 6.63618 18.6826 7.16055C18.5835 7.4636 18.4654 7.7637 18.3281 8.03503C18.3149 8.06113 18.3164 8.09226 18.3323 8.11685C18.9612 9.09335 19.3201 10.3094 19.5301 11.4322C19.7783 12.7593 19.8471 13.8474 19.8357 14.8838C19.8137 16.8802 17.1805 20.9375 14.0192 21.7317C13.9355 21.7528 13.8898 21.6467 13.9591 21.5952C16.1135 19.9933 17.5959 17.8348 18.0926 16.4517C18.118 16.381 18.0405 16.3226 17.9777 16.3638C17.2325 16.853 16.4483 17.4498 15.686 18.0784C14.4196 19.1225 13.2562 20.2183 12.4979 20.9651L12.0489 21.4073C12.0177 21.4381 11.9676 21.4384 11.936 21.4079L11.4822 20.9706C10.8988 20.4084 9.68092 19.5409 8.3168 18.6497C6.97069 17.7703 5.54028 16.9049 4.57528 16.3535L4.25808 16.1722C4.23347 16.1581 4.21802 16.1322 4.21736 16.1039L4.20876 15.7387C4.18437 14.7019 4.27867 13.0744 4.56602 11.5048C4.70992 10.7188 4.90534 9.92981 5.16669 9.22835C5.33553 8.77518 5.54 8.33617 5.79078 7.95239C5.80867 7.92501 5.80871 7.88962 5.791 7.86212C5.55241 7.49161 5.3963 7.09954 5.29544 6.74319C5.14203 6.20116 5.10168 5.69023 5.11685 5.35655L5.16761 4.24013C5.17043 4.17802 5.23936 4.1422 5.29181 4.17558L6.23467 4.77557C6.69457 5.06823 7.58906 5.46414 8.18302 5.70831C8.20227 5.71622 8.22313 5.71644 8.24253 5.7089C9.05639 5.39274 10.5559 4.94103 11.9872 4.94103C13.6038 4.94103 14.9978 5.44476 15.6619 5.68476C15.7127 5.70311 15.7592 5.71992 15.8012 5.73484C15.8184 5.74093 15.837 5.74103 15.8542 5.73505C16.0214 5.6769 16.2719 5.58327 16.567 5.45987C17.031 5.26584 17.5506 5.02078 17.9585 4.76975L19.1189 4.05564ZM6.92237 9.09837C6.88324 9.06257 6.82077 9.07304 6.79687 9.12038C6.70477 9.30284 6.61571 9.50852 6.53074 9.73657C6.30836 10.3334 6.13204 11.0341 5.99787 11.767C5.76863 13.0192 5.67146 14.3148 5.66157 15.2528C5.66126 15.2818 5.67638 15.3083 5.70144 15.3229C6.66022 15.882 7.91862 16.6508 9.11295 17.4311C10.1487 18.1077 11.1713 18.8154 11.9062 19.4111C11.938 19.4369 11.9838 19.4351 12.0134 19.4068C12.7567 18.6953 13.7227 17.8105 14.7599 16.9553C15.9028 16.0129 17.166 15.078 18.3301 14.459C18.3572 14.4446 18.3739 14.4163 18.373 14.3856C18.3523 13.6413 18.2816 12.6746 18.0993 11.6999C17.933 10.811 17.6826 9.96466 17.3255 9.27975C17.325 9.27876 17.3237 9.2785 17.3228 9.27921C17.0032 9.54093 16.5654 9.81325 15.8731 10.1594C14.6661 10.7629 14.0797 11.2592 13.7563 11.6904C13.7254 11.7315 13.6906 11.7875 13.6516 11.8638C13.5593 12.0447 13.4851 12.2224 13.395 12.4381C13.3519 12.5411 13.3053 12.6528 13.2513 12.7776C13.0932 13.1433 12.8964 13.559 12.5995 14.0208L12.0033 14.9482C11.9699 15.0002 11.8929 14.997 11.8639 14.9426L11.345 13.9697C11.0928 13.4968 10.9163 13.0939 10.7692 12.7442C10.7388 12.6719 10.7102 12.6033 10.6828 12.5378C10.5744 12.2777 10.4859 12.0654 10.3824 11.8579C10.3432 11.7795 10.3073 11.7186 10.274 11.6711C10.1697 11.522 9.86945 11.2605 9.42051 10.9369C9.07615 10.6887 8.70954 10.4488 8.40029 10.2464C8.33096 10.201 8.26452 10.1575 8.20186 10.1163C8.1641 10.0914 8.12767 10.0673 8.09299 10.0442C7.73359 9.8046 7.299 9.44294 6.92237 9.09837ZM16.8598 7.66246C16.9771 7.50168 17.1084 7.24159 17.2327 6.90031C17.256 6.83629 17.1914 6.77654 17.1286 6.80282C16.6431 7.00585 16.1993 7.16367 16.0033 7.21267L15.8464 7.2519C15.8335 7.25512 15.8201 7.25512 15.8072 7.2519L15.6503 7.21267C15.4518 7.16306 15.2274 7.08333 14.9722 6.99269C14.2547 6.7378 13.2943 6.39668 11.9872 6.39668C10.6201 6.39668 9.09205 6.91435 8.51307 7.17167L8.26618 7.2814C8.24643 7.29018 8.22399 7.29069 8.20386 7.28281L7.95226 7.18436C7.73457 7.09918 7.38958 6.95817 7.01131 6.79151C6.94394 6.76183 6.8765 6.82907 6.91059 6.89431C7.00637 7.07761 7.12401 7.24604 7.2661 7.38813L7.28324 7.40527L7.29919 7.4235C7.58945 7.75523 8.37941 8.48567 8.90044 8.83302C8.93217 8.85417 8.9662 8.87668 9.00246 8.90056C9.05912 8.93788 9.12117 8.97847 9.18743 9.02182C9.49666 9.22413 9.89771 9.4865 10.2717 9.75606C10.6984 10.0637 11.2006 10.4563 11.4665 10.8363C11.5508 10.9567 11.6224 11.0828 11.6848 11.2079C11.8022 11.4431 11.9063 11.6894 12.0079 11.9331C12.0116 11.942 12.0243 11.942 12.028 11.9331C12.1287 11.6923 12.2365 11.4344 12.3551 11.202C12.421 11.0731 12.4982 10.9417 12.5917 10.817C13.1061 10.1312 13.9158 9.51054 15.2221 8.85743C15.8701 8.53341 16.2002 8.31705 16.4006 8.15294C16.5674 8.01641 16.6553 7.90994 16.7977 7.73753C16.8173 7.71384 16.8379 7.68889 16.8598 7.66246Z"/>
</mask>
<path fill-rule="evenodd" clip-rule="evenodd" d="M19.1189 4.05564C19.177 4.01992 19.2505 4.06764 19.2415 4.13521L19.0614 5.4858C18.986 6.05144 18.8542 6.63618 18.6826 7.16055C18.5835 7.4636 18.4654 7.7637 18.3281 8.03503C18.3149 8.06113 18.3164 8.09226 18.3323 8.11685C18.9612 9.09335 19.3201 10.3094 19.5301 11.4322C19.7783 12.7593 19.8471 13.8474 19.8357 14.8838C19.8137 16.8802 17.1805 20.9375 14.0192 21.7317C13.9355 21.7528 13.8898 21.6467 13.9591 21.5952C16.1135 19.9933 17.5959 17.8348 18.0926 16.4517C18.118 16.381 18.0405 16.3226 17.9777 16.3638C17.2325 16.853 16.4483 17.4498 15.686 18.0784C14.4196 19.1225 13.2562 20.2183 12.4979 20.9651L12.0489 21.4073C12.0177 21.4381 11.9676 21.4384 11.936 21.4079L11.4822 20.9706C10.8988 20.4084 9.68092 19.5409 8.3168 18.6497C6.97069 17.7703 5.54028 16.9049 4.57528 16.3535L4.25808 16.1722C4.23347 16.1581 4.21802 16.1322 4.21736 16.1039L4.20876 15.7387C4.18437 14.7019 4.27867 13.0744 4.56602 11.5048C4.70992 10.7188 4.90534 9.92981 5.16669 9.22835C5.33553 8.77518 5.54 8.33617 5.79078 7.95239C5.80867 7.92501 5.80871 7.88962 5.791 7.86212C5.55241 7.49161 5.3963 7.09954 5.29544 6.74319C5.14203 6.20116 5.10168 5.69023 5.11685 5.35655L5.16761 4.24013C5.17043 4.17802 5.23936 4.1422 5.29181 4.17558L6.23467 4.77557C6.69457 5.06823 7.58906 5.46414 8.18302 5.70831C8.20227 5.71622 8.22313 5.71644 8.24253 5.7089C9.05639 5.39274 10.5559 4.94103 11.9872 4.94103C13.6038 4.94103 14.9978 5.44476 15.6619 5.68476C15.7127 5.70311 15.7592 5.71992 15.8012 5.73484C15.8184 5.74093 15.837 5.74103 15.8542 5.73505C16.0214 5.6769 16.2719 5.58327 16.567 5.45987C17.031 5.26584 17.5506 5.02078 17.9585 4.76975L19.1189 4.05564ZM6.92237 9.09837C6.88324 9.06257 6.82077 9.07304 6.79687 9.12038C6.70477 9.30284 6.61571 9.50852 6.53074 9.73657C6.30836 10.3334 6.13204 11.0341 5.99787 11.767C5.76863 13.0192 5.67146 14.3148 5.66157 15.2528C5.66126 15.2818 5.67638 15.3083 5.70144 15.3229C6.66022 15.882 7.91862 16.6508 9.11295 17.4311C10.1487 18.1077 11.1713 18.8154 11.9062 19.4111C11.938 19.4369 11.9838 19.4351 12.0134 19.4068C12.7567 18.6953 13.7227 17.8105 14.7599 16.9553C15.9028 16.0129 17.166 15.078 18.3301 14.459C18.3572 14.4446 18.3739 14.4163 18.373 14.3856C18.3523 13.6413 18.2816 12.6746 18.0993 11.6999C17.933 10.811 17.6826 9.96466 17.3255 9.27975C17.325 9.27876 17.3237 9.2785 17.3228 9.27921C17.0032 9.54093 16.5654 9.81325 15.8731 10.1594C14.6661 10.7629 14.0797 11.2592 13.7563 11.6904C13.7254 11.7315 13.6906 11.7875 13.6516 11.8638C13.5593 12.0447 13.4851 12.2224 13.395 12.4381C13.3519 12.5411 13.3053 12.6528 13.2513 12.7776C13.0932 13.1433 12.8964 13.559 12.5995 14.0208L12.0033 14.9482C11.9699 15.0002 11.8929 14.997 11.8639 14.9426L11.345 13.9697C11.0928 13.4968 10.9163 13.0939 10.7692 12.7442C10.7388 12.6719 10.7102 12.6033 10.6828 12.5378C10.5744 12.2777 10.4859 12.0654 10.3824 11.8579C10.3432 11.7795 10.3073 11.7186 10.274 11.6711C10.1697 11.522 9.86945 11.2605 9.42051 10.9369C9.07615 10.6887 8.70954 10.4488 8.40029 10.2464C8.33096 10.201 8.26452 10.1575 8.20186 10.1163C8.1641 10.0914 8.12767 10.0673 8.09299 10.0442C7.73359 9.8046 7.299 9.44294 6.92237 9.09837ZM16.8598 7.66246C16.9771 7.50168 17.1084 7.24159 17.2327 6.90031C17.256 6.83629 17.1914 6.77654 17.1286 6.80282C16.6431 7.00585 16.1993 7.16367 16.0033 7.21267L15.8464 7.2519C15.8335 7.25512 15.8201 7.25512 15.8072 7.2519L15.6503 7.21267C15.4518 7.16306 15.2274 7.08333 14.9722 6.99269C14.2547 6.7378 13.2943 6.39668 11.9872 6.39668C10.6201 6.39668 9.09205 6.91435 8.51307 7.17167L8.26618 7.2814C8.24643 7.29018 8.22399 7.29069 8.20386 7.28281L7.95226 7.18436C7.73457 7.09918 7.38958 6.95817 7.01131 6.79151C6.94394 6.76183 6.8765 6.82907 6.91059 6.89431C7.00637 7.07761 7.12401 7.24604 7.2661 7.38813L7.28324 7.40527L7.29919 7.4235C7.58945 7.75523 8.37941 8.48567 8.90044 8.83302C8.93217 8.85417 8.9662 8.87668 9.00246 8.90056C9.05912 8.93788 9.12117 8.97847 9.18743 9.02182C9.49666 9.22413 9.89771 9.4865 10.2717 9.75606C10.6984 10.0637 11.2006 10.4563 11.4665 10.8363C11.5508 10.9567 11.6224 11.0828 11.6848 11.2079C11.8022 11.4431 11.9063 11.6894 12.0079 11.9331C12.0116 11.942 12.0243 11.942 12.028 11.9331C12.1287 11.6923 12.2365 11.4344 12.3551 11.202C12.421 11.0731 12.4982 10.9417 12.5917 10.817C13.1061 10.1312 13.9158 9.51054 15.2221 8.85743C15.8701 8.53341 16.2002 8.31705 16.4006 8.15294C16.5674 8.01641 16.6553 7.90994 16.7977 7.73753C16.8173 7.71384 16.8379 7.68889 16.8598 7.66246Z" fill="white"/>
<path fill-rule="evenodd" clip-rule="evenodd" d="M19.1189 4.05564C19.177 4.01992 19.2505 4.06764 19.2415 4.13521L19.0614 5.4858C18.986 6.05144 18.8542 6.63618 18.6826 7.16055C18.5835 7.4636 18.4654 7.7637 18.3281 8.03503C18.3149 8.06113 18.3164 8.09226 18.3323 8.11685C18.9612 9.09335 19.3201 10.3094 19.5301 11.4322C19.7783 12.7593 19.8471 13.8474 19.8357 14.8838C19.8137 16.8802 17.1805 20.9375 14.0192 21.7317C13.9355 21.7528 13.8898 21.6467 13.9591 21.5952C16.1135 19.9933 17.5959 17.8348 18.0926 16.4517C18.118 16.381 18.0405 16.3226 17.9777 16.3638C17.2325 16.853 16.4483 17.4498 15.686 18.0784C14.4196 19.1225 13.2562 20.2183 12.4979 20.9651L12.0489 21.4073C12.0177 21.4381 11.9676 21.4384 11.936 21.4079L11.4822 20.9706C10.8988 20.4084 9.68092 19.5409 8.3168 18.6497C6.97069 17.7703 5.54028 16.9049 4.57528 16.3535L4.25808 16.1722C4.23347 16.1581 4.21802 16.1322 4.21736 16.1039L4.20876 15.7387C4.18437 14.7019 4.27867 13.0744 4.56602 11.5048C4.70992 10.7188 4.90534 9.92981 5.16669 9.22835C5.33553 8.77518 5.54 8.33617 5.79078 7.95239C5.80867 7.92501 5.80871 7.88962 5.791 7.86212C5.55241 7.49161 5.3963 7.09954 5.29544 6.74319C5.14203 6.20116 5.10168 5.69023 5.11685 5.35655L5.16761 4.24013C5.17043 4.17802 5.23936 4.1422 5.29181 4.17558L6.23467 4.77557C6.69457 5.06823 7.58906 5.46414 8.18302 5.70831C8.20227 5.71622 8.22313 5.71644 8.24253 5.7089C9.05639 5.39274 10.5559 4.94103 11.9872 4.94103C13.6038 4.94103 14.9978 5.44476 15.6619 5.68476C15.7127 5.70311 15.7592 5.71992 15.8012 5.73484C15.8184 5.74093 15.837 5.74103 15.8542 5.73505C16.0214 5.6769 16.2719 5.58327 16.567 5.45987C17.031 5.26584 17.5506 5.02078 17.9585 4.76975L19.1189 4.05564ZM6.92237 9.09837C6.88324 9.06257 6.82077 9.07304 6.79687 9.12038C6.70477 9.30284 6.61571 9.50852 6.53074 9.73657C6.30836 10.3334 6.13204 11.0341 5.99787 11.767C5.76863 13.0192 5.67146 14.3148 5.66157 15.2528C5.66126 15.2818 5.67638 15.3083 5.70144 15.3229C6.66022 15.882 7.91862 16.6508 9.11295 17.4311C10.1487 18.1077 11.1713 18.8154 11.9062 19.4111C11.938 19.4369 11.9838 19.4351 12.0134 19.4068C12.7567 18.6953 13.7227 17.8105 14.7599 16.9553C15.9028 16.0129 17.166 15.078 18.3301 14.459C18.3572 14.4446 18.3739 14.4163 18.373 14.3856C18.3523 13.6413 18.2816 12.6746 18.0993 11.6999C17.933 10.811 17.6826 9.96466 17.3255 9.27975C17.325 9.27876 17.3237 9.2785 17.3228 9.27921C17.0032 9.54093 16.5654 9.81325 15.8731 10.1594C14.6661 10.7629 14.0797 11.2592 13.7563 11.6904C13.7254 11.7315 13.6906 11.7875 13.6516 11.8638C13.5593 12.0447 13.4851 12.2224 13.395 12.4381C13.3519 12.5411 13.3053 12.6528 13.2513 12.7776C13.0932 13.1433 12.8964 13.559 12.5995 14.0208L12.0033 14.9482C11.9699 15.0002 11.8929 14.997 11.8639 14.9426L11.345 13.9697C11.0928 13.4968 10.9163 13.0939 10.7692 12.7442C10.7388 12.6719 10.7102 12.6033 10.6828 12.5378C10.5744 12.2777 10.4859 12.0654 10.3824 11.8579C10.3432 11.7795 10.3073 11.7186 10.274 11.6711C10.1697 11.522 9.86945 11.2605 9.42051 10.9369C9.07615 10.6887 8.70954 10.4488 8.40029 10.2464C8.33096 10.201 8.26452 10.1575 8.20186 10.1163C8.1641 10.0914 8.12767 10.0673 8.09299 10.0442C7.73359 9.8046 7.299 9.44294 6.92237 9.09837ZM16.8598 7.66246C16.9771 7.50168 17.1084 7.24159 17.2327 6.90031C17.256 6.83629 17.1914 6.77654 17.1286 6.80282C16.6431 7.00585 16.1993 7.16367 16.0033 7.21267L15.8464 7.2519C15.8335 7.25512 15.8201 7.25512 15.8072 7.2519L15.6503 7.21267C15.4518 7.16306 15.2274 7.08333 14.9722 6.99269C14.2547 6.7378 13.2943 6.39668 11.9872 6.39668C10.6201 6.39668 9.09205 6.91435 8.51307 7.17167L8.26618 7.2814C8.24643 7.29018 8.22399 7.29069 8.20386 7.28281L7.95226 7.18436C7.73457 7.09918 7.38958 6.95817 7.01131 6.79151C6.94394 6.76183 6.8765 6.82907 6.91059 6.89431C7.00637 7.07761 7.12401 7.24604 7.2661 7.38813L7.28324 7.40527L7.29919 7.4235C7.58945 7.75523 8.37941 8.48567 8.90044 8.83302C8.93217 8.85417 8.9662 8.87668 9.00246 8.90056C9.05912 8.93788 9.12117 8.97847 9.18743 9.02182C9.49666 9.22413 9.89771 9.4865 10.2717 9.75606C10.6984 10.0637 11.2006 10.4563 11.4665 10.8363C11.5508 10.9567 11.6224 11.0828 11.6848 11.2079C11.8022 11.4431 11.9063 11.6894 12.0079 11.9331C12.0116 11.942 12.0243 11.942 12.028 11.9331C12.1287 11.6923 12.2365 11.4344 12.3551 11.202C12.421 11.0731 12.4982 10.9417 12.5917 10.817C13.1061 10.1312 13.9158 9.51054 15.2221 8.85743C15.8701 8.53341 16.2002 8.31705 16.4006 8.15294C16.5674 8.01641 16.6553 7.90994 16.7977 7.73753C16.8173 7.71384 16.8379 7.68889 16.8598 7.66246Z" stroke="#2621FF" mask="url(#path-6-outside-3_358_554)"/>
</svg>
