<svg xmlns="http://www.w3.org/2000/svg" width="137" height="31" fill="none"><path fill="#101011" d="M46.984 29.247c-3.145 0-5.599-.87-7.36-2.61-1.74-1.741-2.611-4.226-2.611-7.456V6.851h5.096v12.142c0 3.942 1.636 5.913 4.907 5.913 1.594 0 2.81-.472 3.649-1.415.838-.965 1.258-2.464 1.258-4.498V6.85h5.033v12.33c0 3.23-.88 5.715-2.643 7.455-1.74 1.741-4.183 2.611-7.329 2.611Zm12.459-11.199h8.903v3.933h-8.903v-3.933Zm14.962-7.045h-7.047V6.85h19.189v4.152h-7.046V28.87h-5.096V11.003Zm29.645.943V28.87h-4.656v-2.013a6.686 6.686 0 0 1-2.328 1.698 7.504 7.504 0 0 1-2.925.566c-2.223 0-3.984-.64-5.284-1.918-1.3-1.28-1.95-3.178-1.95-5.694v-9.563h4.906v8.84c0 2.726 1.143 4.089 3.43 4.089 1.174 0 2.117-.378 2.83-1.133.713-.776 1.07-1.919 1.07-3.428v-8.368h4.907Zm7.66 2.234c.588-.818 1.374-1.437 2.359-1.856 1.007-.42 2.16-.63 3.46-.63v4.53a17.662 17.662 0 0 0-1.1-.062c-1.405 0-2.506.398-3.303 1.195-.797.776-1.195 1.95-1.195 3.523v7.99h-4.908V11.946h4.687v2.234Zm17.451-2.485c2.098 0 3.785.629 5.065 1.887 1.3 1.258 1.95 3.125 1.95 5.6v9.688h-4.907v-8.934c0-1.342-.294-2.338-.881-2.988-.587-.671-1.436-1.007-2.548-1.007-1.237 0-2.223.388-2.957 1.164-.734.755-1.101 1.888-1.101 3.398v8.367h-4.907V11.946h4.687v1.982c.65-.713 1.458-1.258 2.422-1.636.965-.398 2.024-.597 3.177-.597Z"/><path fill="#101011" fill-rule="evenodd" d="M15.09 1.128a2.143 2.143 0 0 1 3.03 0l7.837 7.836-7.872 7.515a2.143 2.143 0 1 1-2.959-3.1l2.417-2.308H12.32a7.571 7.571 0 0 0 0 15.143h10.571a2.143 2.143 0 1 1 0 4.286H12.32C5.771 30.5.463 25.192.463 18.643c0-6.549 5.308-11.857 11.857-11.857h5.398l-2.627-2.628a2.143 2.143 0 0 1 0-3.03Z" clip-rule="evenodd"/></svg>