<svg xmlns="http://www.w3.org/2000/svg" width="111" height="37" fill="none"><g fill="#101011" clip-path="url(#a)"><path d="M42.272 26.594h-9.555V9.568h9.047c1.304 0 2.38.153 3.227.458.864.288 1.507.745 1.93 1.372.425.61.636 1.398.636 2.363 0 1.068-.288 1.915-.864 2.541-.576.627-1.448.992-2.617 1.093v.33c1.44.051 2.507.466 3.202 1.246.711.779 1.067 1.745 1.067 2.897 0 .982-.22 1.83-.66 2.54-.424.712-1.085 1.255-1.983 1.627-.898.373-2.041.56-3.43.56Zm-4.778-6.835v2.54h4.6c.457 0 .804-.067 1.041-.203.238-.135.357-.482.357-1.041 0-.576-.11-.932-.33-1.068-.221-.152-.577-.228-1.068-.228h-4.6Zm0-5.896v2.185h4.015c.492 0 .822-.076.991-.228.187-.153.28-.44.28-.864 0-.458-.11-.754-.33-.89-.204-.135-.551-.203-1.043-.203h-3.913Zm18.051 12.985c-1.406 0-2.609-.262-3.608-.787a5.551 5.551 0 0 1-2.262-2.287c-.508-1-.762-2.194-.762-3.584 0-1.44.263-2.676.788-3.71a5.376 5.376 0 0 1 2.312-2.363c1.017-.559 2.245-.839 3.685-.839 1.406 0 2.575.255 3.507.763.948.508 1.651 1.211 2.109 2.109.474.881.711 1.906.711 3.075 0 .356-.025.711-.076 1.067-.05.356-.093.644-.127.864H50.946v-2.592h6.734l-.203.127a1.59 1.59 0 0 0-.153-.813c-.102-.254-.305-.457-.61-.61-.288-.152-.711-.229-1.27-.229-.78 0-1.322.144-1.627.432-.305.271-.457.712-.457 1.322v1.804c0 .627.05 1.11.152 1.449a.991.991 0 0 0 .636.66c.321.119.813.178 1.473.178.576 0 .974-.06 1.195-.178.22-.135.33-.347.33-.635v-.05h4.727v.304c0 .881-.263 1.66-.788 2.338-.508.678-1.237 1.211-2.185 1.6-.932.39-2.05.585-3.355.585Zm12.296-.254h-4.752V13.533h4.447v3.71l.305.127v9.224Zm0-8.259h-.966v-2.82h.89a4.937 4.937 0 0 1 1.473-1.601c.627-.424 1.373-.636 2.237-.636.847 0 1.516.17 2.007.509.492.339.847.821 1.067 1.448.22.627.33 1.372.33 2.236v2.364h-4.777v-1.296c0-.492-.067-.822-.203-.991-.136-.17-.424-.254-.864-.254-.39 0-.686.059-.89.177-.203.102-.304.39-.304.864Zm12.631 8.26H75.72V9.567h4.752v17.026Zm6.279-14.231h-4.752V9.568h4.752v2.796Zm.025 14.23H82V13.533h4.777v13.061Zm15.122 0H97.12v-7.37c0-.694-.127-1.177-.381-1.448-.238-.27-.78-.406-1.627-.406-.525 0-.94.05-1.245.152-.288.102-.5.28-.635.534-.118.254-.178.618-.178 1.093h-.763v-3.634h.687c.237-.492.568-.898.99-1.22a4.353 4.353 0 0 1 1.475-.762 6.17 6.17 0 0 1 1.804-.255c1.135 0 2.041.23 2.719.687a3.766 3.766 0 0 1 1.474 1.804c.305.745.458 1.567.458 2.465v8.36Zm-8.844 0h-4.752V13.533h4.447v3.583l.305.127v9.351Zm15.954 0h-5.692v-5.26h5.692v5.26Zm-85.651-20.8H2.18c-1.17 0-2.118.948-2.118 2.118v21.176c0 1.17.949 2.118 2.118 2.118h21.177c1.17 0 2.117-.948 2.117-2.118V7.912c0-1.17-.948-2.118-2.117-2.118ZM20.18 3.676H5.357a1.059 1.059 0 0 1-1.06-1.059V1.56c0-.585.475-1.06 1.06-1.06H20.18a1.06 1.06 0 0 1 1.059 1.06v1.058a1.06 1.06 0 0 1-1.059 1.06Zm0 32.824H5.357a1.059 1.059 0 0 1-1.06-1.059v-1.059a1.06 1.06 0 0 1 1.06-1.058H20.18c.585 0 1.059.474 1.059 1.058v1.06c0 .584-.474 1.058-1.059 1.058Z"/><path fill-rule="evenodd" d="M21.303 15.388a1.059 1.059 0 0 1 0 1.498L12.988 25.2a1.059 1.059 0 0 1-1.498 0l-6.197-6.198a1.059 1.059 0 0 1 0-1.497l2.246-2.246a1.059 1.059 0 0 1 1.497 0l3.203 3.203 5.32-5.32a1.059 1.059 0 0 1 1.498 0l2.246 2.245Z" clip-rule="evenodd"/></g><defs><clipPath id="a"><path fill="#fff" d="M.063.5h110.4v36H.063z"/></clipPath></defs></svg>