<svg xmlns="http://www.w3.org/2000/svg" width="150" height="37" fill="none"><g fill="#101011" clip-path="url(#a)"><path d="M76.408 6.1a44.032 44.032 0 0 0-7.536 5.578 196.02 196.02 0 0 0-6.894 6.467 125.568 125.568 0 0 0-3.768 3.799l-3.688 3.88a40.324 40.324 0 0 1-2.084 2.263 43.21 43.21 0 0 0-2.085 2.264 33.066 33.066 0 0 0 3.287-.97 89.66 89.66 0 0 1 3.047-.97 29.722 29.722 0 0 0 2.565-.647c.908-.27 1.817-.485 2.726-.647a11.766 11.766 0 0 1 2.725-.323c.962-.054 1.844.08 2.646.404 1.015.377 1.63 1.024 1.843 1.94a2.33 2.33 0 0 1-.16 1.697c.909-.269 1.79-.565 2.646-.889.909-.323 1.763-.62 2.565-.889l4.65-1.455c1.55-.539 3.126-.97 4.73-1.293.427-.108.935-.162 1.523-.162.641-.054 1.203 0 1.683.162.482.162.829.458 1.043.889.267.377.294.943.08 1.697-.16.486-.481.89-.962 1.213a6.857 6.857 0 0 1-1.684.647 24.75 24.75 0 0 1-1.924.404c-.641.054-1.149.135-1.523.242a157.16 157.16 0 0 0-5.371 1.698l-5.291 1.616c-.909.27-1.898.54-2.966.809-1.07.323-2.085.377-3.047.161-.374-.053-.775-.215-1.202-.485-.909-.7-1.336-1.347-1.283-1.94.053-.592.294-1.185.721-1.778h-.962a73.348 73.348 0 0 0-5.771 1.213 92.14 92.14 0 0 0-4.73 1.455 20.74 20.74 0 0 1-4.81 1.05 3.421 3.421 0 0 1-1.764-.323c-.588-.215-1.016-.674-1.283-1.374-.214-.593-.214-1.159 0-1.698a7.325 7.325 0 0 1 .882-1.697 51.046 51.046 0 0 1-4.41 2.344 75.567 75.567 0 0 1-3.046 1.293c-1.39.593-2.886 1.213-4.489 1.86-1.603.646-3.207.943-4.81.889-1.764-.108-2.833-.593-3.207-1.455-.374-.862-.294-1.94.24-3.234.482-1.347 1.257-2.775 2.326-4.284a56.724 56.724 0 0 1 3.367-4.445 82.13 82.13 0 0 1 3.367-3.638 146.643 146.643 0 0 1 2.004-2.102l1.122-1.131h-4.57c-1.496 0-3.019.027-4.569.08-3.1.108-6.173.27-9.22.485-3.099.162-6.199.405-9.299.728-1.122.162-2.218.323-3.286.485a24.411 24.411 0 0 0-3.367.566 7.383 7.383 0 0 0-.882.242c-.321.108-.615.108-.882 0-.588-.215-.855-.592-.802-1.131 0-.593.267-.97.802-1.132 6.413-1.67 13.014-2.721 19.801-3.152a365.776 365.776 0 0 1 20.122-.89c1.39-1.293 2.78-2.56 4.169-3.799a303.29 303.29 0 0 1 4.249-3.718 50.805 50.805 0 0 0 2.405-2.425c.962-1.024 1.924-1.67 2.886-1.94.534-.162.989-.135 1.363.08.427.162.748.459.962.89.214.377.294.808.24 1.293-.053.485-.267.916-.641 1.294a396.857 396.857 0 0 0-4.89 4.203 114.926 114.926 0 0 0-4.73 4.203c.801 0 1.55.108 2.245.324a4.452 4.452 0 0 1 1.683.808c.535.377.909.943 1.122 1.697.16.647.08 1.213-.24 1.698-.32.431-.722.754-1.203.97a2.902 2.902 0 0 1-1.523.08c-.48-.161-.855-.511-1.122-1.05-.695-.27-1.496-.458-2.405-.566a14.682 14.682 0 0 0-2.566-.242l-.801.727a696.998 696.998 0 0 0-6.975 6.79c-2.405 2.425-4.302 5.039-5.692 7.84a42.413 42.413 0 0 0 5.772-1.616 77.94 77.94 0 0 0 5.853-2.344 110.73 110.73 0 0 0 5.692-2.748 66.956 66.956 0 0 0 5.21-3.153 221.92 221.92 0 0 1 6.174-6.143 164.587 164.587 0 0 1 6.493-5.901 126.751 126.751 0 0 1 4.088-3.476 57.784 57.784 0 0 1 4.25-3.152 4.34 4.34 0 0 1 1.923-.809c.749-.161 1.363.135 1.844.89.267.485.32 1.023.16 1.616-.106.54-.4.97-.881 1.294Z"/><path d="M123.299 30.431a22.043 22.043 0 0 0-3.687.647c-1.176.27-2.379.539-3.608.808a790.163 790.163 0 0 1-9.54 2.183 94.09 94.09 0 0 1-9.62 1.455c-.855.108-1.764.188-2.726.242a16.44 16.44 0 0 1-2.806-.08 11.17 11.17 0 0 1-2.645-.647c-.856-.27-1.63-.7-2.325-1.294a5.153 5.153 0 0 1-1.363-1.697 4.711 4.711 0 0 1-.641-2.02 4.292 4.292 0 0 1 .16-2.022c.214-.7.615-1.32 1.202-1.859.375-.377.962-.673 1.764-.889.855-.27 1.79-.458 2.806-.566a19.195 19.195 0 0 1 3.046-.08c1.016.053 1.897.242 2.646.565.748.324 1.256.782 1.523 1.374.32.54.294 1.24-.08 2.102a2.765 2.765 0 0 1-1.443 1.374 8.488 8.488 0 0 1-2.165.566c-.801.054-1.63.054-2.485 0a55.753 55.753 0 0 1-2.245-.323c.214.215.642.404 1.283.566.642.107 1.31.188 2.004.242.749.054 1.417.08 2.005.08h1.202a62.916 62.916 0 0 0 7.777-1.13c2.618-.54 5.21-1.105 7.776-1.698 1.87-.431 3.714-.862 5.531-1.294a41.069 41.069 0 0 1 5.612-1.05c.802-.054 1.47.134 2.004.565.535.432.882.943 1.042 1.536.161.54.081 1.051-.24 1.536-.267.485-.855.755-1.764.808Z"/><path d="M147.495 30.432c-2.726.054-5.505.134-8.337.242a30.974 30.974 0 0 1-8.338-.97c-.213 0-.427-.054-.641-.161a10.035 10.035 0 0 1-1.443 2.667 10.673 10.673 0 0 1-2.004 2.102 7.328 7.328 0 0 1-2.485 1.293 4.622 4.622 0 0 1-2.566.08c-.802-.215-1.39-.619-1.764-1.212a3.85 3.85 0 0 1-.721-2.02 5.54 5.54 0 0 1 .321-2.264 6.404 6.404 0 0 1 .962-2.02 6.405 6.405 0 0 1 2.645-1.94c1.069-.432 2.138-.486 3.207-.162.107-.755.534-1.348 1.282-1.779.749-.43 1.55-.377 2.406.162.801.485 1.656.862 2.565 1.132.962.215 1.951.35 2.966.404 1.016.054 2.004.08 2.966.08a54.6 54.6 0 0 1 2.886-.08c1.069 0 2.218-.054 3.447-.162 1.23-.161 2.352-.08 3.368.243.588.215.988.566 1.202 1.05.267.486.348.97.241 1.456-.054.485-.267.916-.642 1.293-.374.377-.881.566-1.523.566Zm-23.97 1.05c.16-.161.481-.242.962-.242v-.727a4.685 4.685 0 0 1-.481.404c-.214.107-.374.296-.481.566Z"/></g><defs><clipPath id="a"><path fill="#fff" d="M.563.5h149.2v36H.563z"/></clipPath></defs></svg>