<svg xmlns="http://www.w3.org/2000/svg" width="87" height="24" fill="none"><g fill="#101011" clip-path="url(#a)"><path d="M34.389 18.877c-1.363 0-2.512-.193-3.447-.578-.922-.385-1.616-.928-2.084-1.63-.468-.716-.702-1.555-.702-2.518v-.124h2.229v.33c0 .55.123 1.012.371 1.383.248.358.66.633 1.238.826.578.178 1.376.268 2.395.268.88 0 1.582-.062 2.104-.186.523-.137.895-.344 1.115-.619.234-.289.35-.647.35-1.073 0-.605-.192-1.046-.577-1.32-.385-.276-1.011-.496-1.878-.661l-3.385-.557a8.652 8.652 0 0 1-2.063-.66c-.606-.304-1.08-.703-1.424-1.198-.33-.509-.496-1.142-.496-1.899 0-.495.11-.983.33-1.465.22-.481.564-.915 1.032-1.3.468-.385 1.074-.688 1.817-.908.756-.234 1.678-.35 2.765-.35 1.348 0 2.456.206 3.323.618.866.413 1.506.977 1.919 1.693.426.701.64 1.506.64 2.414v.124h-2.209v-.268c0-.564-.123-1.032-.371-1.404-.248-.385-.654-.667-1.218-.846-.564-.192-1.327-.289-2.29-.289-.84 0-1.52.07-2.043.207-.51.137-.881.344-1.115.619-.234.261-.35.605-.35 1.032 0 .385.082.701.247.949.165.248.42.447.763.598a9.24 9.24 0 0 0 1.321.393l3.364.577c.922.165 1.685.413 2.291.743.62.33 1.08.75 1.383 1.26.302.508.454 1.1.454 1.774 0 .702-.2 1.362-.599 1.981-.399.62-1.025 1.122-1.878 1.507-.853.371-1.96.557-3.322.557Zm12.293-.206h-2.766L40.841 8.414h2.312l1.712 5.82.475 2.641h.165l.764-2.848 2.146-5.613h2.848l2.167 5.613.764 2.848h.165l.474-2.641 1.713-5.82h2.27L55.7 18.67h-2.765l-2.25-5.903-.784-2.517h-.165l-.784 2.517-2.27 5.903Zm15.496 0h-2.23V8.414h2.23V18.67Zm0-11.454h-2.23V4.844h2.23v2.373Zm6.913 11.66c-1.65 0-2.93-.316-3.838-.95-.894-.632-1.342-1.54-1.342-2.723v-.062h2.23v.165c0 .674.22 1.142.66 1.403.454.248 1.217.372 2.29.372 1.005 0 1.686-.104 2.043-.31.372-.22.558-.557.558-1.011 0-.427-.145-.73-.434-.908-.275-.18-.784-.317-1.527-.413l-2.807-.371c-.977-.124-1.74-.4-2.29-.826-.55-.44-.826-1.094-.826-1.96 0-.606.18-1.136.537-1.59.357-.467.894-.832 1.61-1.093.715-.262 1.595-.393 2.64-.393 1.047 0 1.941.138 2.684.413.757.275 1.335.688 1.733 1.238.413.55.62 1.232.62 2.044v.062h-2.209v-.124c0-.4-.082-.736-.247-1.012-.165-.275-.461-.481-.888-.619-.412-.151-.997-.227-1.754-.227-.95 0-1.61.11-1.981.33-.372.22-.557.572-.557 1.053 0 .399.137.688.413.867.274.179.79.323 1.547.433l2.374.33c1.21.152 2.105.448 2.682.888.578.44.867 1.087.867 1.94 0 .633-.2 1.183-.598 1.65-.4.455-.956.806-1.672 1.053-.715.234-1.555.351-2.518.351Zm11.246 0c-1.65 0-2.93-.316-3.838-.95-.894-.632-1.342-1.54-1.342-2.723v-.062h2.23v.165c0 .674.22 1.142.66 1.403.453.248 1.217.372 2.29.372 1.005 0 1.686-.104 2.043-.31.372-.22.558-.557.558-1.011 0-.427-.145-.73-.434-.908-.275-.18-.784-.317-1.527-.413l-2.807-.371c-.977-.124-1.74-.4-2.29-.826-.55-.44-.826-1.094-.826-1.96 0-.606.179-1.136.537-1.59.357-.467.894-.832 1.61-1.093.715-.262 1.595-.393 2.64-.393 1.047 0 1.94.138 2.684.413.756.275 1.334.688 1.733 1.238.413.55.62 1.232.62 2.044v.062h-2.209v-.124c0-.4-.082-.736-.247-1.012-.165-.275-.461-.481-.888-.619-.413-.151-.997-.227-1.754-.227-.95 0-1.61.11-1.981.33-.372.22-.557.572-.557 1.053 0 .399.137.688.412.867.276.179.791.323 1.548.433l2.374.33c1.21.152 2.105.448 2.682.888.578.44.867 1.087.867 1.94 0 .633-.2 1.183-.598 1.65-.4.455-.956.806-1.672 1.053-.716.234-1.555.351-2.518.351ZM14.162.782H9.546v8.742l4.616-4.37V.781Z"/><path d="M.804 14.14V9.524h8.742L5.175 14.14H.804Zm22.1-4.616v4.617h-8.742l4.371-4.617h4.371Z"/><path d="M14.18 9.506H9.527v13.377h4.653V9.506Z"/></g><defs><clipPath id="a"><path fill="#101011" d="M.803.781h85.793v22.252H.803z"/></clipPath></defs></svg>