<svg xmlns="http://www.w3.org/2000/svg" width="130" height="27" fill="none"><g fill="#101011" clip-path="url(#a)"><path d="M10.552 26.39c-2.635-.087-4.625-.682-5.973-1.785-1.347-1.133-2.32-2.396-2.918-3.79-.599-1.422-.898-2.859-.898-4.31 0-1.51.284-2.962.853-4.355.599-1.423 1.571-2.686 2.919-3.789C5.912 7.23 7.648 6.648 9.743 6.62h14.549c2.095.03 3.816.61 5.163 1.742 1.378 1.103 2.35 2.366 2.92 3.789a10.93 10.93 0 0 1 .897 4.355c0 1.451-.3 2.888-.898 4.31-.599 1.394-1.571 2.657-2.919 3.79-1.347 1.103-3.337 1.698-5.971 1.785H10.55Zm-.988-13.935c-.57 0-1.063.232-1.482.696-.42.436-.734.959-.943 1.568a5.85 5.85 0 0 0-.27 1.742c0 .61.09 1.22.27 1.83.21.58.524 1.102.943 1.567.419.435.913.668 1.482.697H24.47c.57-.03 1.063-.262 1.482-.697a4.13 4.13 0 0 0 .898-1.568c.21-.61.315-1.22.315-1.829 0-.58-.105-1.161-.315-1.742a3.751 3.751 0 0 0-.898-1.568c-.419-.464-.913-.696-1.482-.696H9.564Zm57.386-3.31c0 .726-.3 1.336-.899 1.83-.568.464-1.272.696-2.11.696H44.947c-.389 0-.703.073-.943.218-.24.145-.419.305-.538.479-.12.145-.18.276-.18.392 0 .145.06.305.18.479.12.145.299.29.538.435.24.117.554.19.943.218H59.63c1.886.03 3.443.392 4.67 1.089 1.228.668 2.096 1.466 2.605 2.395.538.9.808 1.814.808 2.743 0 .9-.27 1.815-.808 2.744-.54.9-1.422 1.698-2.65 2.395-1.197.668-2.739 1.002-4.624 1.002-.33.029-.57.043-.719.043H41.49c-.838 0-1.557-.232-2.156-.696-.568-.494-.853-1.09-.853-1.786 0-.726.3-1.335.898-1.829.57-.464 1.273-.697 2.11-.697h18.5c.45.03.809-.029 1.078-.174.3-.145.524-.305.674-.479.15-.174.224-.348.224-.523 0-.087-.074-.232-.224-.435a1.353 1.353 0 0 0-.674-.523c-.27-.145-.628-.232-1.077-.26H45.262c-1.737-.03-3.173-.378-4.311-1.046-1.138-.697-1.946-1.495-2.425-2.395-.479-.9-.718-1.8-.718-2.7 0-.9.24-1.786.718-2.657.51-.9 1.317-1.669 2.425-2.308 1.138-.667 2.574-1.03 4.31-1.088.3-.03.524-.044.674-.044h18.006c.838 0 1.542.247 2.11.74.6.465.899 1.046.899 1.742ZM75.795 0c.808.029 1.496.32 2.065.871a2.7 2.7 0 0 1 .898 1.96v21.338c-.18 1.742-1.167 2.686-2.963 2.831a3.337 3.337 0 0 1-2.2-.784 2.671 2.671 0 0 1-.899-2.047V2.831c.03-.813.345-1.481.944-2.004C74.237.276 74.956 0 75.794 0Zm17.962 26.39c-2.635-.087-4.625-.682-5.972-1.785-1.348-1.133-2.32-2.396-2.919-3.79-.599-1.422-.898-2.859-.898-4.31 0-1.51.284-2.962.853-4.355.599-1.423 1.572-2.686 2.919-3.789 1.377-1.132 3.113-1.713 5.208-1.742h14.549c2.095.03 3.817.61 5.164 1.742 1.377 1.103 2.35 2.366 2.918 3.789.599 1.393.898 2.845.898 4.355 0 1.451-.299 2.888-.898 4.31-.598 1.394-1.571 2.657-2.918 3.79-1.347 1.103-3.338 1.698-5.972 1.785H93.757Zm-.988-13.935c-.569 0-1.063.232-1.482.696-.42.436-.733.959-.943 1.568a5.85 5.85 0 0 0-.27 1.742c0 .61.09 1.22.27 1.83.21.58.524 1.102.943 1.567.419.435.913.668 1.482.697h14.907c.569-.03 1.063-.262 1.482-.697.419-.465.719-.987.898-1.568.21-.61.314-1.22.314-1.829a5.09 5.09 0 0 0-.314-1.742 3.746 3.746 0 0 0-.898-1.568c-.419-.464-.913-.696-1.482-.696H92.769ZM126.12 27a3.214 3.214 0 1 0 0-6.428 3.214 3.214 0 0 0 0 6.428Z"/></g><defs><clipPath id="a"><path fill="#fff" d="M.763 0h128.7v27H.763z"/></clipPath></defs></svg>