<svg xmlns="http://www.w3.org/2000/svg" width="149" height="37" fill="none"><g clip-path="url(#a)"><path fill="#101011" d="M5.443 18.067V36.5H.463V22.048l4.98-3.98Z" opacity=".4"/><path fill="#101011" d="M5.442 18.067V36.5h4.98V21.151l-4.98-3.084Z"/><path fill="#101011" d="M15.255 10.538V36.5h-6.64V16.033l6.64-5.495Z" opacity=".5"/><path fill="#101011" d="M15.255 10.538V36.5h6.64V14.65l-6.64-4.112Z"/><path fill="#101011" d="M27.52.5v36h-8.945V8.721L27.52.5Z" opacity=".6"/><path fill="#101011" d="M27.52.5v36h8.944V8.721L27.52.5Z"/><mask id="b" width="102" height="37" x="47" y="0" maskUnits="userSpaceOnUse" style="mask-type:luminance"><path fill="#fff" d="M148.063.5h-100.8v36h100.8V.5Z"/></mask><g mask="url(#b)"><path fill="#101011" d="M47.562 26.888V10.92h2.396v15.967h-2.396Zm8.439 0h-2.304V14.515h2.073v1.29l1.29-1.29h4.585l.991 1.014.99-1.014h5.254l1.613 1.59v10.783h-2.304V16.68h-4.885v10.207H61V16.68h-3.894l-1.105.99v9.217Zm20.205 4.677h-2.304v-17.05h2.073v1.29l1.29-1.29h4.724l1.612 1.59v9.17l-1.612 1.613h-5.783v4.677Zm5.091-14.884h-3.986l-1.105.99v7.097h5.091v-8.087ZM89.3 26.888h-2.304V14.515h2.074v1.567l1.59-1.567h2.856v2.212h-2.903L89.3 17.971v8.917Zm8.462-14.608h-2.396v-2.165h2.396v2.165Zm-.046 14.608h-2.304V14.515h2.304v12.373Zm5.76 0h-2.304V14.515h2.073v1.29l1.29-1.29h4.931l1.613 1.59v10.783h-2.327V16.68h-4.171l-1.105.99v9.217Zm17.167 0h-4.124l-1.613-1.613v-8.848h-1.705v-1.912h1.705v-2.511h2.304v2.511h3.18v1.912h-3.18v8.295h3.433v2.166Zm4.682-14.608h-2.396v-2.165h2.396v2.165Zm-.046 14.608h-2.304V14.515h2.304v12.373Zm6.796 0h-2.304v-10.46h-2.005v-1.913h2.005v-3.018l1.612-1.59h3.825v1.912h-3.133v2.696h2.903v1.912h-2.903v10.46Zm5.056.783h2.234v1.89h5.184V26.22h-5.99l-1.59-1.59V14.515h2.304v9.677h5.276v-9.677h2.304v15.46l-1.635 1.59h-6.452l-1.635-1.59v-2.304Z"/></g></g><defs><clipPath id="a"><path fill="#fff" d="M.463.5h147.6v36H.463z"/></clipPath></defs></svg>