<svg xmlns="http://www.w3.org/2000/svg" width="103" height="45" fill="none"><path fill="#101011" d="M69.9 15.972v-2.904l-7.623-3.372L69.9 6.481V3.602l-10.632 4.98v2.333L69.9 15.972ZM5.335 30.952c.587 1.02 1.711 1.53 3.37 1.53 1.66 0 2.776-.5 3.346-1.504.588-1.002.882-2.68.882-5.03 0-2.37-.303-4.09-.908-5.161-.588-1.072-1.694-1.608-3.32-1.608-1.624 0-2.74.536-3.344 1.608-.606 1.072-.908 2.783-.908 5.135 0 2.333.294 4.01.882 5.03Zm8.972 1.868c-1.054 1.452-2.921 2.178-5.601 2.178s-4.556-.726-5.627-2.178c-1.072-1.47-1.608-3.77-1.608-6.898 0-3.13.536-5.455 1.608-6.976 1.089-1.522 2.964-2.282 5.627-2.282 2.662 0 4.53.76 5.601 2.282 1.072 1.504 1.608 3.829 1.608 6.976 0 3.146-.536 5.445-1.608 6.898Zm6.215 1.893h-2.827V21.746h2.8v.804c1.263-.726 2.456-1.089 3.58-1.089 1.728 0 2.904.493 3.526 1.478.64.968.96 2.576.96 4.824v6.95H25.76V27.84c0-1.4-.156-2.394-.467-2.982-.294-.588-.907-.881-1.841-.881-.882 0-1.729.172-2.542.518l-.388.156v10.062Zm10.95 2.1h11.1v2.412h-11.1v-2.412Zm14.455-2.1V16.949H57.13v2.515h-8.325v5.031h6.769v2.49h-6.769v5.186h8.325v2.542H45.927Zm11.416-12.967H60.3l2.49 10.555h.83l2.593-10.555h2.879L65.72 34.713h-5.03l-3.346-12.967ZM79.095 32.38l.726-.078.052 2.1c-1.971.398-3.718.597-5.239.597-1.919 0-3.302-.527-4.149-1.582-.83-1.055-1.245-2.74-1.245-5.057 0-4.599 1.876-6.898 5.628-6.898 3.63 0 5.445 1.98 5.445 5.939l-.181 2.022h-8.04c.018 1.072.251 1.859.7 2.36.45.502 1.29.752 2.516.752 1.228 0 2.49-.051 3.787-.155Zm-1.556-5.135c0-1.28-.207-2.17-.623-2.671-.397-.519-1.08-.778-2.048-.778s-1.677.268-2.127.804c-.432.536-.657 1.418-.674 2.645h5.472Zm7.085 7.469h-2.827V21.746h2.8v.804c1.262-.726 2.456-1.089 3.579-1.089 1.729 0 2.905.493 3.527 1.478.64.968.96 2.576.96 4.824v6.95h-2.801V27.84c0-1.4-.156-2.394-.467-2.982-.294-.588-.908-.881-1.841-.881-.882 0-1.729.172-2.542.518l-.388.156v10.062Zm17.07-10.555h-3.578v5.705c0 1.055.077 1.755.233 2.1.156.347.553.52 1.193.52l2.126-.078.13 2.256c-1.158.224-2.04.337-2.645.337-1.47 0-2.48-.337-3.034-1.011-.536-.675-.804-1.945-.804-3.813v-6.016h-1.66v-2.412h1.66v-3.76h2.8v3.76h3.579v2.412Zm-26.995-4.995L82.116.908 79.626 0l-7.39 18.282 2.463.882Zm9.061-3.192 10.633-5.057V8.581L83.761 3.602v2.879l7.624 3.215-7.624 3.372v2.904Z"/></svg>