<svg xmlns="http://www.w3.org/2000/svg" width="116" height="37" fill="none"><g fill="#101011" clip-path="url(#a)"><path d="m61.864 28.83-7.828-9.792 7.33-8.66h-4.84l-6.53 8.245v-8.244h-3.928V28.83h3.928v-5.67l1.44-1.716 5.587 7.386h4.841Z"/><path d="M71.1 29.162c5.588 0 9.655-3.983 9.655-9.543 0-5.56-4.067-9.544-9.655-9.544-5.56 0-9.626 3.983-9.626 9.544 0 5.56 4.066 9.543 9.626 9.543Zm0-3.485c-3.402 0-5.588-2.628-5.588-6.058 0-3.458 2.186-6.059 5.588-6.059 3.403 0 5.616 2.6 5.616 6.059 0 3.43-2.213 6.058-5.616 6.058Zm22.426 3.153c3.513 0 5.367-2.213 5.367-4.979 0-2.324-1.577-4.232-3.541-4.537 1.742-.36 3.18-1.909 3.18-4.232 0-2.462-1.797-4.703-5.31-4.703h-9.71V28.83h10.014Zm-1.162-11.065H87.44v-4.011h4.924c1.328 0 2.158.857 2.158 2.02 0 1.161-.83 1.991-2.158 1.991Zm.138 7.663H87.44V21.14h5.062c1.55 0 2.38.996 2.38 2.158 0 1.328-.886 2.13-2.38 2.13Zm22.41 3.402v-3.457h-9.13v-4.178h8.936v-3.458h-8.936v-3.9h9.13v-3.458h-13.058V28.83h13.058ZM34.965 9.931V5.484h-15.22V.5h-4.87v4.984H0v4.447h14.914v4.026H3.604V31.86h4.6V18.404h6.71V36.5h4.754V18.404h7.322v8.435c0 .421-.191.613-.805.613-.613 0-2.875 0-4.792-.077.652 1.227 1.342 3.183 1.534 4.486 2.99 0 5.175-.077 6.785-.767 1.572-.69 2.032-1.993 2.032-4.179V13.957H19.668V9.93h15.297Z"/></g><defs><clipPath id="a"><path fill="#fff" d="M0 .5h115.2v36H0z"/></clipPath></defs></svg>